Coordinates
version=1
nRows=19
nColumns=24
inDegrees=yes

Units are S.I. units (second, meters, Newtons, ...)
Angles are in degrees.

endheader
time	pelvis_tilt	pelvis_list	pelvis_rotation	pelvis_tx	pelvis_ty	pelvis_tz	hip_flexion_r	hip_adduction_r	hip_rotation_r	knee_angle_r	ankle_angle_r	subtalar_angle_r	mtp_angle_r	hip_flexion_l	hip_adduction_l	hip_rotation_l	knee_angle_l	ankle_angle_l	subtalar_angle_l	mtp_angle_l	lumbar_extension	lumbar_bending	lumbar_rotation
      0.55400000	     -0.69644228	      5.18869379	      4.89752925	     -0.78685590	      0.99281666	      0.25206525	     24.66332497	     -6.99397025	    -10.37491532	      1.48423646	      2.17080669	     -5.65042403	     -0.51143675	    -14.27448459	      6.08286117	     -2.75975187	     -7.06801301	     13.15373974	     -3.98761693	     -0.37376108	    -10.09461410	     -5.61021542	     -3.91995347
      0.55816667	     -0.37647167	      5.04742172	      5.08522835	     -0.78077014	      0.99279822	      0.25186783	     24.31951432	     -6.90106219	    -10.44763747	      0.95800202	      2.02709906	     -6.00256925	     -0.91785907	    -14.82174777	      5.80661441	     -2.47474681	     -7.36582510	     13.06981521	     -4.16083358	     -0.88576450	    -10.44904057	     -5.31061486	     -4.07315200
      0.56233333	     -0.19286905	      4.93014914	      5.30376014	     -0.77464417	      0.99257902	      0.25163305	     24.13805105	     -6.85373793	    -10.54938110	      0.33754296	      2.01075897	     -6.24960407	     -6.38298716	    -15.19666505	      5.55855294	     -2.14319697	     -7.74148511	     13.14138985	     -4.15585054	     -8.42716561	    -10.61774028	     -5.04206442	     -4.33792467
      0.56650000	     -0.06802082	      4.78907499	      5.43157236	     -0.76839371	      0.99223786	      0.25172460	     24.01533065	     -6.72210418	    -10.51395315	     -0.24687839	      1.73945597	     -6.78255196	     -6.34383938	    -15.47209665	      5.28107673	     -2.09346123	     -8.18311749	     13.21734898	     -3.95641632	     -8.45111168	    -10.68969599	     -4.78784967	     -4.43933247
      0.57066667	      0.16985054	      4.60971011	      5.54488683	     -0.76212187	      0.99212598	      0.25187421	     23.73509529	     -6.52857299	    -10.48063267	     -0.77426127	      1.38071240	     -7.32268394	     -6.27745046	    -15.85389332	      4.94912946	     -2.06049764	     -8.63997881	     13.16945684	     -3.83206191	     -8.46737887	    -10.91477625	     -4.47694110	     -4.60028975
      0.57483333	      0.32999165	      4.46535712	      5.68808068	     -0.75582158	      0.99194367	      0.25193391	     23.54075860	     -6.39339792	    -10.50808661	     -1.33980290	      1.01782824	     -7.83172694	     -6.22396896	    -16.14276011	      4.66360190	     -1.92943749	     -9.11490823	     13.13788974	     -3.75198305	     -8.46209565	    -11.02808320	     -4.20948247	     -4.69699403
      0.57900000	      0.53919093	      4.28710863	      5.81671547	     -0.74948267	      0.99188200	      0.25209205	     23.26073719	     -6.20039203	    -10.52708749	     -1.83638412	      0.51930406	     -8.38710197	     -6.15765440	    -16.45630893	      4.32978496	     -1.85487095	     -9.63488287	     13.04269041	     -3.66527116	     -8.43939963	    -11.21153974	     -3.90764881	     -4.84565095
      0.58316667	      0.82023672	      4.07902201	      5.90795550	     -0.74307537	      0.99196442	      0.25234369	     22.87781750	     -5.94826351	    -10.52463899	     -2.27950763	     -0.01509135	     -8.92062961	     -6.02491675	    -16.82615949	      3.95566053	     -1.89278104	    -10.18921019	     12.91480574	     -3.51082126	     -8.37082942	    -11.45858132	     -3.54858684	     -5.01612200
      0.58733333	      1.03134709	      3.89805230	      5.98938507	     -0.73666186	      0.99197606	      0.25262924	     22.57513497	     -5.72471434	    -10.53304567	     -2.71988893	     -0.68401100	     -9.45985702	     -5.85536561	    -17.10348433	      3.62222662	     -1.89888688	    -10.77837981	     12.76378078	     -3.38528992	     -8.25318494	    -11.62205268	     -3.24945915	     -5.11594746
      0.59150000	      1.17792476	      3.71658306	      6.09361779	     -0.73022050	      0.99194604	      0.25286280	     22.33216395	     -5.51541160	    -10.57864271	     -3.15315098	     -1.37759090	    -10.02790402	     -5.75483518	    -17.28252271	      3.29597405	     -1.85327279	    -11.41933030	     12.57661809	     -3.35018480	     -8.16178439	    -11.69801626	     -2.94584170	     -5.14904307
      0.59566667	      1.43346633	      3.50300939	      6.10220846	     -0.72375882	      0.99210012	      0.25340102	     21.95204573	     -5.20774351	    -10.50196421	     -3.49772207	     -2.19879468	    -10.60734449	     -5.53683709	    -17.54942782	      2.92434498	     -2.00489899	    -12.10735210	     12.35217604	     -3.15268933	     -7.94013450	    -11.92120559	     -2.63215473	     -5.24294203
      0.59983333	      1.63821662	      3.29041628	      6.11060546	     -0.71725401	      0.99222087	      0.25389456	     21.63200045	     -4.91233077	    -10.46898475	     -3.85576801	     -3.05902333	    -11.20132056	     -5.27545409	    -17.74626946	      2.56834992	     -2.12254940	    -12.82283115	     12.07913840	     -3.03313909	     -7.62741259	    -12.06102197	     -2.31554160	     -5.24269538
      0.60400000	      1.70517258	      3.10011576	      6.17547770	     -0.71075908	      0.99222033	      0.25424926	     21.45496082	     -4.68400952	    -10.49821594	     -4.22505887	     -3.89618661	    -11.70967261	     -5.17284861	    -17.74619871	      2.25107698	     -2.11961489	    -13.62920873	     11.76004018	     -3.07459256	     -7.47789889	    -12.03924640	     -2.02547443	     -5.19636993
      0.60816667	      1.94778491	      2.82385933	      6.03147973	     -0.70411684	      0.99243263	      0.25512858	     21.09274506	     -4.24896396	    -10.32981583	     -4.52317852	     -4.85127908	    -12.31966262	     -4.66249499	    -17.93923647	      1.83942066	     -2.51661545	    -14.42664155	     11.40583010	     -2.77860183	     -6.69115632	    -12.20388271	     -1.66680974	     -5.03630199
      0.61233333	      2.01180439	      2.65913825	      6.06693571	     -0.69771235	      0.99252571	      0.25558245	     20.91954289	     -4.03790082	    -10.31534485	     -4.87137012	     -5.74514618	    -12.84101558	     -4.55931435	    -17.85903834	      1.55731334	     -2.51299155	    -15.36169917	     10.99372850	     -2.90345479	     -6.48823682	    -12.20037944	     -1.42740580	     -5.04905013
      0.61650000	      2.19644608	      2.37843991	      5.84700221	     -0.69105280	      0.99272041	      0.25666159	     20.63319092	     -3.57718987	    -10.05843133	     -5.17787552	     -6.67995177	    -13.43247518	     -4.12005010	    -17.92829303	      1.15913960	     -3.00585827	    -16.27395937	     10.53207757	     -2.63014240	     -5.58204698	    -12.29802689	     -1.09159431	     -4.86588029
      0.62066667	      2.31059480	      2.20090492	      5.76613226	     -0.68468404	      0.99293258	      0.25742444	     20.42757957	     -3.30102042	     -9.92686706	     -5.52524990	     -7.63372488	    -14.02320422	     -3.81684211	    -17.83608393	      0.86776830	     -3.18004516	    -17.32431657	     10.06918320	     -2.62258379	     -4.82634793	    -12.36843845	     -0.86772555	     -4.83577562
      0.62483333	      2.37701798	      1.90078643	      5.49404071	     -0.67797865	      0.99302564	      0.25857758	     20.28906858	     -2.82564120	     -9.63485480	     -5.88248286	     -8.45607454	    -14.55696188	     -3.21534713	    -17.71027430	      0.47778814	     -3.70095439	    -18.36921817	      9.49626473	     -2.49870913	     -3.09333547	    -12.31484708	     -0.53039989	     -4.47602635
      0.62900000	      2.42584852	      1.72332137	      5.40172086	     -0.67156146	      0.99324703	      0.25923384	     20.17716640	     -2.58705815	     -9.61331976	     -6.30850377	     -9.22489267	    -14.86456212	     -0.72373074	    -17.48688939	      0.20715857	     -3.85547137	    -19.50075146	      8.74733156	     -2.73826948	      6.27676599	    -12.29790092	     -0.30644775	     -4.18757868
